<svg xmlns="http://www.w3.org/2000/svg" xmlns:xlink="http://www.w3.org/1999/xlink" version="1.1" id="Layer_1" x="0px" y="0px" width="100%" viewBox="0 0 860 989" enable-background="new 0 0 860 989" xml:space="preserve">
<path fill="#F7F7F7" opacity="1.000000" stroke="none" d=" M446.000000,990.000000   C297.333344,990.000000 149.166672,990.000000 1.000000,990.000000   C1.000000,660.333313 1.000000,330.666656 1.000000,1.000000   C287.666656,1.000000 574.333313,1.000000 861.000000,1.000000   C861.000000,330.666656 861.000000,660.333313 861.000000,990.000000   C722.833313,990.000000 584.666687,990.000000 446.000000,990.000000  M824.870483,702.667236   C826.677429,696.842346 829.408997,691.120850 830.074280,685.168335   C831.067322,676.283752 830.738953,667.236389 830.740295,658.258301   C830.757324,546.689087 830.731934,435.119812 830.718079,323.550568   C830.716492,311.228210 830.904663,298.902191 830.663391,286.584564   C830.437622,275.059998 828.390747,264.046783 819.150757,255.026245   C814.183228,250.922043 809.568420,246.260864 804.167480,242.841248   C795.597900,237.415421 786.501038,232.822983 777.630798,227.871536   C671.037415,168.369919 564.408752,108.931221 457.886292,49.302914   C439.657013,39.098671 421.891663,39.129017 403.828644,49.248581   C288.172852,114.043236 172.510620,178.826355 56.826706,243.570724   C39.991211,252.992981 31.852823,267.207458 31.862001,286.474792   C31.923363,415.301270 31.893740,544.127747 31.905542,672.954224   C31.905909,676.951843 31.396481,681.092957 32.253666,684.913879   C33.573589,690.797485 35.872269,696.461609 37.946598,702.883728   C42.455196,710.778442 49.028885,716.463196 56.884892,720.866943   C91.281258,740.148010 125.642250,759.492188 160.029083,778.790283   C242.015030,824.801208 324.018616,870.780884 405.990143,916.817505   C422.602936,926.147522 439.170990,926.558289 455.869476,917.176453   C470.085510,909.189453 484.309998,901.217590 498.530548,893.238647   C562.958435,857.089417 627.386169,820.939880 691.814148,784.790833   C729.832520,763.459595 767.857544,742.140198 805.864807,720.789307   C813.528259,716.484375 820.168762,711.063538 824.870483,702.667236  z"/>
<path fill="#5D6CBF" opacity="1.000000" stroke="none" d=" M37.755714,702.218811   C35.872269,696.461609 33.573589,690.797485 32.253666,684.913879   C31.396481,681.092957 31.905909,676.951843 31.905542,672.954224   C31.893740,544.127747 31.923363,415.301270 31.862001,286.474792   C31.852823,267.207458 39.991211,252.992981 56.826706,243.570724   C172.510620,178.826355 288.172852,114.043236 403.828644,49.248581   C421.891663,39.129017 439.657013,39.098671 457.886292,49.302914   C564.408752,108.931221 671.037415,168.369919 777.630798,227.871536   C786.501038,232.822983 795.597900,237.415421 804.167480,242.841248   C809.568420,246.260864 814.183228,250.922043 818.934326,255.552307   C803.313110,264.966278 787.931580,273.894531 772.498352,282.732635   C749.272217,296.033508 726.040039,309.324707 702.742188,322.499237   C696.711121,325.909668 690.425903,328.870514 683.996582,331.797852   C666.246887,303.067871 645.126953,277.632080 619.108337,256.570038   C548.477539,199.394455 468.001373,178.102676 378.625641,193.607239   C309.977722,205.516022 252.483185,238.832245 207.679947,292.134125   C147.215363,364.068115 126.060295,447.027039 142.687866,539.509155   C148.097443,569.597046 159.092331,597.754211 173.031219,624.795166   C165.132645,629.141724 157.576965,633.330200 150.070724,637.605469   C122.197678,653.481140 94.320755,669.350281 66.489052,685.298279   C56.845707,690.824036 47.329811,696.572205 37.755714,702.218811  z"/>
<path fill="#3949AA" opacity="1.000000" stroke="none" d=" M684.257446,332.037842   C690.425903,328.870514 696.711121,325.909668 702.742188,322.499237   C726.040039,309.324707 749.272217,296.033508 772.498352,282.732635   C787.931580,273.894531 803.313110,264.966278 819.037292,255.874695   C828.390747,264.046783 830.437622,275.059998 830.663391,286.584564   C830.904663,298.902191 830.716492,311.228210 830.718079,323.550568   C830.731934,435.119812 830.757324,546.689087 830.740295,658.258301   C830.738953,667.236389 831.067322,676.283752 830.074280,685.168335   C829.408997,691.120850 826.677429,696.842346 824.223877,702.830872   C821.912170,702.249512 820.180542,701.624146 818.591919,700.741516   C798.446838,689.547852 778.359192,678.250549 758.182678,667.114075   C736.567871,655.183899 714.884094,643.378479 693.199158,631.575989   C691.194153,630.484741 688.963257,629.808472 686.707092,628.632935   C686.213440,627.987671 685.901367,627.555542 685.479248,627.323303   C644.099792,604.549683 602.717407,581.781311 561.296387,559.083374   C560.152161,558.456360 558.588318,558.595093 557.122803,558.011719   C556.367920,556.946167 555.834534,556.021118 555.034363,555.578186   C538.341309,546.338806 521.625732,537.139893 504.898468,527.962402   C487.474792,518.402771 470.052216,508.840942 452.593872,499.344879   C442.401245,493.800842 432.139618,488.383667 422.095215,482.622070   C437.289032,473.827209 452.322845,465.365387 467.298767,456.802338   C496.976624,439.832794 526.622559,422.807343 556.623413,405.804688   C557.424683,405.642609 557.922180,405.547333 558.338562,405.309692   C599.340515,381.906067 640.341309,358.500214 681.307861,335.034698   C682.479004,334.363892 683.282532,333.051239 684.257446,332.037842  z"/>
<path fill="#2A3793" opacity="1.000000" stroke="none" d=" M686.837280,628.939453   C688.963257,629.808472 691.194153,630.484741 693.199158,631.575989   C714.884094,643.378479 736.567871,655.183899 758.182678,667.114075   C778.359192,678.250549 798.446838,689.547852 818.591919,700.741516   C820.180542,701.624146 821.912170,702.249512 823.958984,703.042419   C820.168762,711.063538 813.528259,716.484375 805.864807,720.789307   C767.857544,742.140198 729.832520,763.459595 691.814148,784.790833   C627.386169,820.939880 562.958435,857.089417 498.530548,893.238647   C484.309998,901.217590 470.085510,909.189453 455.869476,917.176453   C439.170990,926.558289 422.602936,926.147522 405.990143,916.817505   C324.018616,870.780884 242.015030,824.801208 160.029083,778.790283   C125.642250,759.492188 91.281258,740.148010 56.884892,720.866943   C49.028885,716.463196 42.455196,710.778442 37.851158,702.551270   C47.329811,696.572205 56.845707,690.824036 66.489052,685.298279   C94.320755,669.350281 122.197678,653.481140 150.070724,637.605469   C157.576965,633.330200 165.132645,629.141724 173.259048,625.044739   C230.362930,726.924316 343.142731,788.586060 463.867249,775.072083   C522.743591,768.481384 574.846558,745.924561 620.345947,708.068726   C647.245178,685.688354 669.028809,658.975708 686.837280,628.939453  z"/>
<path fill="#FEFEFE" opacity="1.000000" stroke="none" d=" M686.707092,628.632935   C669.028809,658.975708 647.245178,685.688354 620.345947,708.068726   C574.846558,745.924561 522.743591,768.481384 463.867249,775.072083   C343.142731,788.586060 230.362930,726.924316 173.624664,624.926636   C159.092331,597.754211 148.097443,569.597046 142.687866,539.509155   C126.060295,447.027039 147.215363,364.068115 207.679947,292.134125   C252.483185,238.832245 309.977722,205.516022 378.625641,193.607239   C468.001373,178.102676 548.477539,199.394455 619.108337,256.570038   C645.126953,277.632080 666.246887,303.067871 683.996582,331.797852   C683.282532,333.051239 682.479004,334.363892 681.307861,335.034698   C640.341309,358.500214 599.340515,381.906067 558.338562,405.309692   C557.922180,405.547333 557.424683,405.642609 556.530701,405.469574   C503.921631,321.795685 386.753204,311.618805 321.557068,385.075928   C292.618286,417.681488 280.684448,456.219482 285.214417,499.567078   C287.111664,517.722046 292.160034,535.107849 301.468140,551.440674   C301.830353,552.414490 302.070862,553.040283 302.393585,553.620422   C336.360535,614.686768 407.023499,643.760803 473.820282,623.532471   C509.827393,612.628296 537.793762,590.813660 557.220154,558.376709   C558.588318,558.595093 560.152161,558.456360 561.296387,559.083374   C602.717407,581.781311 644.099792,604.549683 685.479248,627.323303   C685.901367,627.555542 686.213440,627.987671 686.707092,628.632935  z"/>
<path fill="#5D6CBF" opacity="1.000000" stroke="none" d=" M301.384827,551.071411   C292.160034,535.107849 287.111664,517.722046 285.214417,499.567078   C280.684448,456.219482 292.618286,417.681488 321.557068,385.075928   C386.753204,311.618805 503.921631,321.795685 556.188965,405.469910   C526.622559,422.807343 496.976624,439.832794 467.298767,456.802338   C452.322845,465.365387 437.289032,473.827209 421.757141,482.700867   C417.196503,485.359558 413.156158,487.645294 409.124268,489.945862   C386.075195,503.097565 363.045685,516.283691 339.973541,529.394775   C327.146729,536.683838 314.250031,543.849915 301.384827,551.071411  z"/>
<path fill="#2A3693" opacity="1.000000" stroke="none" d=" M301.468140,551.440674   C314.250031,543.849915 327.146729,536.683838 339.973541,529.394775   C363.045685,516.283691 386.075195,503.097565 409.124268,489.945862   C413.156158,487.645294 417.196503,485.359558 421.570984,482.988159   C432.139618,488.383667 442.401245,493.800842 452.593872,499.344879   C470.052216,508.840942 487.474792,518.402771 504.898468,527.962402   C521.625732,537.139893 538.341309,546.338806 555.034363,555.578186   C555.834534,556.021118 556.367920,556.946167 557.122803,558.011719   C537.793762,590.813660 509.827393,612.628296 473.820282,623.532471   C407.023499,643.760803 336.360535,614.686768 302.393585,553.620422   C302.070862,553.040283 301.830353,552.414490 301.468140,551.440674  z"/>
</svg>