<svg xmlns="http://www.w3.org/2000/svg" xmlns:xlink="http://www.w3.org/1999/xlink" version="1.1" id="Layer_1" x="0px" y="0px" width="100%" viewBox="0 0 212 238" enable-background="new 0 0 212 238" xml:space="preserve">
<path fill="#659AD2" opacity="1.000000" stroke="none" d=" M102.000000,1.000000   C105.030594,1.000000 108.061188,1.000000 111.708038,1.315248   C113.838280,2.290642 115.431557,2.812911 116.854538,3.631283   C145.641266,20.186886 174.451385,36.703121 203.112030,53.474648   C205.924637,55.120525 207.794952,58.376671 209.776901,61.028008   C195.623199,69.100067 181.795242,77.029503 167.893127,84.624481   C141.725037,40.538960 79.645493,37.387314 49.978363,78.715111   C32.354782,103.265640 31.903818,129.360596 45.580673,155.954590   C40.889400,158.469208 36.564663,160.950516 32.207542,163.373596   C22.786882,168.612595 13.349618,173.821716 3.624760,178.902786   C2.553582,177.508347 1.776790,176.254181 1.000000,175.000000   C1.000000,138.645767 1.000000,102.291542 1.313718,65.321533   C4.861662,60.830505 7.354234,55.700321 11.448645,53.280563   C41.452202,35.548748 71.776703,18.360003 102.000000,1.000000  z"/>
<path fill="#024482" opacity="1.000000" stroke="none" d=" M3.919144,179.043045   C13.349618,173.821716 22.786882,168.612595 32.207542,163.373596   C36.564663,160.950516 40.889400,158.469208 45.789688,156.238174   C53.211018,167.599640 62.079807,176.985077 73.983727,182.309708   C83.368065,186.507309 93.489868,189.510818 103.589607,191.469681   C108.931519,192.505783 114.979752,190.452591 120.615089,189.324478   C141.301437,185.183395 156.870239,173.627228 168.453888,156.038132   C172.996918,158.387848 177.213135,160.633530 181.387802,162.953995   C191.026123,168.311356 200.644272,173.705002 210.183731,179.424164   C207.392548,182.365051 205.030640,185.512756 201.917953,187.460922   C193.507187,192.724976 184.793213,197.507095 176.170395,202.429352   C154.788910,214.634735 133.391205,226.811661 112.000000,239.000000   C108.969406,239.000000 105.938812,239.000000 102.226730,238.729813   C100.168091,237.911743 98.698677,237.524155 97.427322,236.792450   C68.461296,220.121277 39.471378,203.490158 10.641687,186.585907   C7.877078,184.964874 6.135591,181.598938 3.919144,179.043045  z"/>
<path fill="#01599C" opacity="1.000000" stroke="none" d=" M210.270599,179.083923   C200.644272,173.705002 191.026123,168.311356 181.387802,162.953995   C177.213135,160.633530 172.996918,158.387848 168.321564,155.718933   C157.592697,149.573318 147.341827,143.816971 136.893005,137.777298   C135.325043,136.602478 133.980759,135.668198 132.580811,134.826492   C124.415810,129.917343 116.237747,125.029884 108.263138,119.860718   C118.320808,113.783699 128.179443,107.981064 138.372833,102.063675   C148.460800,96.285599 158.214050,90.622276 167.967285,84.958946   C181.795242,77.029503 195.623199,69.100067 210.059570,61.238914   C211.445343,63.204807 212.222672,65.102402 213.000000,67.000000   C213.000000,102.354225 213.000000,137.708450 212.701401,173.686951   C211.692078,175.902130 210.981339,177.493027 210.270599,179.083923  M205.431519,116.087975   C203.461212,116.087975 201.490906,116.087975 199.099258,116.087975   C199.099258,113.220810 199.099258,110.790359 199.099258,108.550087   C196.268158,108.550087 193.868454,108.550087 190.729248,108.550087   C193.350433,115.838898 188.958374,116.550430 183.751617,116.255928   C183.751617,119.000832 183.751617,121.390488 183.751617,123.830620   C186.365936,123.978889 188.639206,124.107811 191.062622,124.245247   C191.185242,126.941833 191.294815,129.351517 191.398560,131.633118   C194.297028,131.633118 196.685623,131.633118 199.361206,131.633118   C199.361206,129.000183 199.361206,126.701889 199.361206,124.278183   C202.078979,124.087326 204.496033,123.917595 207.420013,123.712257   C207.018143,120.946243 206.672928,118.570145 205.431519,116.087975  M174.474915,116.062088   C167.956848,116.869614 170.762451,111.371880 169.509033,108.473450   C167.075409,108.473450 164.693314,108.473450 162.163879,108.473450   C162.020187,111.174011 161.892288,113.577919 161.750000,116.252121   C159.009796,116.252121 156.731201,116.252121 154.320602,116.252121   C154.320602,118.948036 154.320602,121.334488 154.320602,123.853073   C157.005981,123.985329 159.411713,124.103806 161.792130,124.221039   C161.963654,127.064819 162.108719,129.469986 162.243469,131.704025   C165.005753,131.704025 167.274902,131.704025 169.701553,131.704025   C169.868851,129.056534 170.020782,126.652153 170.204117,123.750610   C172.901459,123.750610 175.286896,123.750610 178.395081,123.750610   C176.454971,120.977562 180.547379,117.031433 174.474915,116.062088  z"/>
<path fill="#FEFFFF" opacity="1.000000" stroke="none" d=" M101.531342,1.000000   C71.776703,18.360003 41.452202,35.548748 11.448645,53.280563   C7.354234,55.700321 4.861662,60.830505 1.313718,64.852875   C1.000000,43.723377 1.000000,22.446753 1.000000,1.000000   C34.354034,1.000000 67.708359,1.000000 101.531342,1.000000  z"/>
<path fill="#FEFFFF" opacity="1.000000" stroke="none" d=" M213.000000,66.531342   C212.222672,65.102402 211.445343,63.204807 210.385315,61.096298   C207.794952,58.376671 205.924637,55.120525 203.112030,53.474648   C174.451385,36.703121 145.641266,20.186886 116.854538,3.631283   C115.431557,2.812911 113.838280,2.290642 112.162155,1.315248   C145.578247,1.000000 179.156494,1.000000 213.000000,1.000000   C213.000000,22.686840 213.000000,44.374763 213.000000,66.531342  z"/>
<path fill="#FEFEFE" opacity="1.000000" stroke="none" d=" M210.183731,179.424164   C210.981339,177.493027 211.692078,175.902130 212.701401,174.155609   C213.000000,195.609421 213.000000,217.218826 213.000000,239.000000   C179.645966,239.000000 146.291641,239.000000 112.468658,239.000000   C133.391205,226.811661 154.788910,214.634735 176.170395,202.429352   C184.793213,197.507095 193.507187,192.724976 201.917953,187.460922   C205.030640,185.512756 207.392548,182.365051 210.183731,179.424164  z"/>
<path fill="#FEFEFE" opacity="1.000000" stroke="none" d=" M3.624758,178.902786   C6.135591,181.598938 7.877078,184.964874 10.641687,186.585907   C39.471378,203.490158 68.461296,220.121277 97.427322,236.792450   C98.698677,237.524155 100.168091,237.911743 101.772621,238.729813   C68.422829,239.000000 34.845665,239.000000 1.000000,239.000000   C1.000000,217.979874 1.000000,196.958588 1.000000,175.468658   C1.776790,176.254181 2.553582,177.508347 3.624758,178.902786  z"/>
<path fill="#FEFEFE" opacity="1.000000" stroke="none" d=" M137.090958,138.060608   C147.341827,143.816971 157.592697,149.573318 167.975891,155.648865   C156.870239,173.627228 141.301437,185.183395 120.615089,189.324478   C114.979752,190.452591 108.931519,192.505783 103.589607,191.469681   C93.489868,189.510818 83.368065,186.507309 73.983727,182.309708   C62.079807,176.985077 53.211018,167.599640 46.141541,156.178467   C31.903818,129.360596 32.354782,103.265640 49.978363,78.715111   C79.645493,37.387314 141.725037,40.538960 167.893127,84.624481   C158.214050,90.622276 148.460800,96.285599 138.067535,101.904022   C124.960007,83.207047 103.643883,81.149727 88.852921,89.865036   C72.541298,99.476402 66.415794,122.667473 76.660141,137.445282   C83.532211,149.418915 93.780106,155.194901 107.101181,155.160263   C120.200768,155.126190 130.329514,149.434402 137.090958,138.060608  z"/>
<path fill="#659AD2" opacity="1.000000" stroke="none" d=" M76.554703,137.103897   C66.415794,122.667473 72.541298,99.476402 88.852921,89.865036   C103.643883,81.149727 124.960007,83.207047 137.732803,102.018784   C128.179443,107.981064 118.320808,113.783699 107.914757,119.906990   C106.492424,120.690048 105.610924,121.140457 104.743599,121.616692   C95.346024,126.776756 85.950668,131.940872 76.554703,137.103897  z"/>
<path fill="#014482" opacity="1.000000" stroke="none" d=" M76.660133,137.445282   C85.950668,131.940872 95.346024,126.776756 104.743599,121.616692   C105.610924,121.140457 106.492424,120.690048 107.715714,120.181381   C116.237747,125.029884 124.415810,129.917343 132.580811,134.826492   C133.980759,135.668198 135.325043,136.602478 136.893005,137.777298   C130.329514,149.434402 120.200768,155.126190 107.101181,155.160263   C93.780106,155.194901 83.532211,149.418915 76.660133,137.445282  z"/>
<path fill="#F5F8FA" opacity="1.000000" stroke="none" d=" M205.879608,116.141014   C206.672928,118.570145 207.018143,120.946243 207.420013,123.712257   C204.496033,123.917595 202.078979,124.087326 199.361206,124.278183   C199.361206,126.701889 199.361206,129.000183 199.361206,131.633118   C196.685623,131.633118 194.297028,131.633118 191.398560,131.633118   C191.294815,129.351517 191.185242,126.941833 191.062622,124.245247   C188.639206,124.107811 186.365936,123.978889 183.751617,123.830620   C183.751617,121.390488 183.751617,119.000832 183.751617,116.255928   C188.958374,116.550430 193.350433,115.838898 190.729248,108.550087   C193.868454,108.550087 196.268158,108.550087 199.099258,108.550087   C199.099258,110.790359 199.099258,113.220810 199.099258,116.087975   C201.490906,116.087975 203.461212,116.087975 205.879608,116.141014  z"/>
<path fill="#F8FAFC" opacity="1.000000" stroke="none" d=" M174.916962,116.063889   C180.547379,117.031433 176.454971,120.977562 178.395081,123.750610   C175.286896,123.750610 172.901459,123.750610 170.204117,123.750610   C170.020782,126.652153 169.868851,129.056534 169.701553,131.704025   C167.274902,131.704025 165.005753,131.704025 162.243469,131.704025   C162.108719,129.469986 161.963654,127.064819 161.792130,124.221039   C159.411713,124.103806 157.005981,123.985329 154.320602,123.853073   C154.320602,121.334488 154.320602,118.948036 154.320602,116.252121   C156.731201,116.252121 159.009796,116.252121 161.750000,116.252121   C161.892288,113.577919 162.020187,111.174011 162.163879,108.473450   C164.693314,108.473450 167.075409,108.473450 169.509033,108.473450   C170.762451,111.371880 167.956848,116.869614 174.916962,116.063889  z"/>
</svg>